<?xml version="1.0" encoding="UTF-8" standalone="no"?>
<!-- Created with Inkscape (http://www.inkscape.org/) -->

<svg
   width="210mm"
   height="297mm"
   viewBox="0 0 210 297"
   version="1.1"
   id="svg6047"
   xmlns="http://www.w3.org/2000/svg"
   xmlns:svg="http://www.w3.org/2000/svg">
  <defs
     id="defs6044">
    <clipPath
       clipPathUnits="userSpaceOnUse"
       id="clipPath5533">
      <path
         d="M 0,553.472 H 668.967 V 0 H 0 Z"
         id="path5531" />
    </clipPath>
  </defs>
  <g
     id="layer1">
    <g
       id="g5527"
       transform="matrix(0.24895187,0,0,-0.24895187,22.450269,173.15576)"
       style="stroke-width:1.41705">
      <g
         id="g5529"
         clip-path="url(#clipPath5533)"
         style="stroke-width:1.41705">
        <g
           id="g5535"
           transform="translate(134.9903,191.2045)"
           style="stroke-width:1.41705">
          <path
             d="m 0,0 c 1.527,-0.335 2.871,0.098 3.866,1.234 1.768,2.018 5.736,2.03 7.855,0.026 2.284,-2.158 4.887,-3.989 7.424,-5.864 1.779,-1.316 3.831,-1.141 5.343,0.609 1.646,1.907 3.504,3.634 5.322,5.385 0.782,0.753 1.696,1.368 2.531,2.03 1.322,-0.605 1.385,-1.655 1.253,-2.684 -0.392,-3.052 -1.714,-5.751 -3.088,-8.479 -1.66,-3.296 -4.394,-5.126 -7.579,-6.541 -3.178,-1.412 -4.994,-3.927 -5.921,-7.205 -0.565,-2.003 -1.228,-3.979 -1.87,-6.04 -0.959,0.369 -0.56,1.12 -0.614,1.671 -0.226,2.302 -0.773,4.501 -1.971,6.502 -0.196,0.326 -0.455,0.625 -0.725,0.896 -3.069,3.085 -6.145,6.163 -9.22,9.242 C 1.269,-7.879 0.997,-6.081 0.501,-4.375 0.409,-4.062 0.171,-3.791 0,-3.501 Z"
             style="fill:#231f20;fill-opacity:1;fill-rule:nonzero;stroke:none;stroke-width:1.41705"
             id="path5537" />
        </g>
        <g
           id="g5539"
           transform="translate(245.3895,276.5916)"
           style="stroke-width:1.41705">
          <path
             d="m 0,0 c -3.028,-0.998 -3.766,-1.888 -3.495,-4.372 0.285,-2.605 0.627,-5.121 2.574,-7.292 3.176,-3.543 8.397,-3.825 11.5,-0.232 1.802,2.088 2.675,4.542 2.428,7.335 -0.195,2.203 -1.057,3.004 -3.238,2.92 C 9.066,-1.667 8.366,-1.836 7.669,-1.962 6.426,-2.186 5.234,-2.25 4.335,-0.811 3.535,-1.483 2.84,-2.067 2.224,-2.585 1.45,-1.686 0.718,-0.835 0,0 m 27.271,-8.595 c -0.605,-0.283 -1.183,-0.678 -1.818,-0.827 -1.888,-0.44 -3.791,-0.83 -5.703,-1.144 -0.865,-0.143 -1.772,-0.123 -2.652,-0.064 -1.467,0.097 -2.682,-0.305 -3.986,-1.07 -2.65,-1.554 -4.62,-3.866 -6.999,-5.698 -2.525,-1.944 -5.238,-3.399 -8.658,-3.374 -2.014,0.015 -4.062,-0.626 -6.044,-1.162 -2.139,-0.577 -3.636,-2.009 -4.884,-3.874 -1.791,-2.676 -2.591,-3.473 -6.627,-2.005 0.505,1.626 1.638,2.872 2.607,4.185 2.8,3.791 5.743,7.48 8.448,11.335 1.059,1.509 1.797,3.301 2.39,5.061 0.801,2.376 -0.455,4.224 -1.976,5.94 -0.849,0.958 -1.611,2 -2.336,3.056 -0.234,0.34 -0.427,0.93 -0.29,1.263 0.61,1.487 1.279,2.961 2.068,4.359 0.362,0.644 1.065,0.622 1.686,0.125 0.858,-0.687 1.702,-1.403 2.62,-2.003 1.85,-1.207 3.967,-1.895 6.087,-1.321 4.76,1.286 8.347,-0.777 11.555,-3.798 1.218,-1.147 2.501,-1.969 3.992,-2.628 2.658,-1.173 5.303,-2.383 7.895,-3.693 0.992,-0.502 1.825,-1.321 2.73,-1.996 -0.035,-0.222 -0.07,-0.445 -0.105,-0.667"
             style="fill:#231f20;fill-opacity:1;fill-rule:nonzero;stroke:none;stroke-width:1.41705"
             id="path5541" />
        </g>
        <g
           id="g5543"
           transform="translate(214.0207,241.6501)"
           style="stroke-width:1.41705">
          <path
             d="M 0,0 C -0.907,4.1 -0.452,3.015 2.496,3.842 3.473,4.117 4.528,4.15 5.552,4.194 5.847,4.207 6.158,3.872 6.456,3.699 4.938,0.872 -11.07,-10.344 -14.012,-10.544 c 0.176,0.65 0.17,1.353 0.513,1.764 1.241,1.487 2.518,2.965 3.939,4.275 1.137,1.047 2.595,1.486 4.146,1.894 C -3.489,-2.104 -1.753,-0.881 0,0"
             style="fill:#231f20;fill-opacity:1;fill-rule:nonzero;stroke:none;stroke-width:1.41705"
             id="path5545" />
        </g>
        <g
           id="g5547"
           transform="translate(180.8521,168.372)"
           style="stroke-width:1.41705">
          <path
             d="M 0,0 C -1.262,-0.016 -2.037,0.66 -2.041,1.78 -2.044,2.942 -0.854,4.035 0.418,4.038 1.541,4.041 2.435,3.216 2.459,2.155 2.486,0.902 1.48,0.019 0,0"
             style="fill:#231f20;fill-opacity:1;fill-rule:nonzero;stroke:none;stroke-width:1.41705"
             id="path5549" />
        </g>
        <g
           id="g5551"
           transform="translate(169.6032,173.1872)"
           style="stroke-width:1.41705">
          <path
             d="M 0,0 C 1.058,-0.036 1.805,-0.879 1.813,-2.047 1.822,-3.282 0.944,-4.12 -0.263,-4.031 -1.319,-3.952 -2.144,-3.032 -2.116,-1.963 -2.084,-0.742 -1.239,0.042 0,0"
             style="fill:#231f20;fill-opacity:1;fill-rule:nonzero;stroke:none;stroke-width:1.41705"
             id="path5553" />
        </g>
        <g
           id="g5555"
           transform="translate(189.8691,170.7082)"
           style="stroke-width:1.41705">
          <path
             d="M 0,0 C -1.057,0.023 -1.874,0.814 -1.834,1.776 -1.795,2.73 -0.673,3.638 0.475,3.646 1.706,3.655 2.243,3.103 2.184,1.889 2.128,0.742 1.239,-0.027 0,0"
             style="fill:#231f20;fill-opacity:1;fill-rule:nonzero;stroke:none;stroke-width:1.41705"
             id="path5557" />
        </g>
        <g
           id="g5559"
           transform="translate(189.0274,164.2416)"
           style="stroke-width:1.41705">
          <path
             d="M 0,0 C 1.12,-0.006 1.876,-0.72 1.839,-1.736 1.803,-2.728 0.833,-3.629 -0.212,-3.642 -1.311,-3.655 -2.198,-2.773 -2.159,-1.706 -2.122,-0.703 -1.224,0.007 0,0"
             style="fill:#231f20;fill-opacity:1;fill-rule:nonzero;stroke:none;stroke-width:1.41705"
             id="path5561" />
        </g>
        <g
           id="g5563"
           transform="translate(195.6478,178.099)"
           style="stroke-width:1.41705">
          <path
             d="M 0,0 C -0.991,-0.05 -1.628,0.415 -1.731,1.392 -1.834,2.371 -0.508,3.606 0.544,3.618 1.488,3.628 2.264,2.844 2.233,1.91 2.198,0.858 1.178,-0.014 0,0"
             style="fill:#231f20;fill-opacity:1;fill-rule:nonzero;stroke:none;stroke-width:1.41705"
             id="path5565" />
        </g>
        <g
           id="g5567"
           transform="translate(196.8297,168.9074)"
           style="stroke-width:1.41705">
          <path
             d="m 0,0 c 0.797,0.045 1.422,-0.132 1.439,-1.105 0.02,-1.049 -1.23,-2.266 -2.448,-2.339 -0.918,-0.054 -1.477,0.399 -1.539,1.327 C -2.621,-1.037 -1.387,-0.035 0,0"
             style="fill:#231f20;fill-opacity:1;fill-rule:nonzero;stroke:none;stroke-width:1.41705"
             id="path5569" />
        </g>
        <g
           id="g5571"
           transform="translate(170.3012,160.9411)"
           style="stroke-width:1.41705">
          <path
             d="M 0,0 C 1.84,0.544 3.114,-0.125 4.141,-1.471 3.4,-2.667 2.424,-3.028 1.154,-2.579 0.069,-2.195 -0.171,-1.694 0,0"
             style="fill:#231f20;fill-opacity:1;fill-rule:nonzero;stroke:none;stroke-width:1.41705"
             id="path5573" />
        </g>
        <g
           id="g5575"
           transform="translate(174.3801,169.1523)"
           style="stroke-width:1.41705">
          <path
             d="M 0,0 C -1.093,-0.016 -1.753,0.599 -1.779,1.61 -1.802,2.534 -1.163,3.239 -0.286,3.256 0.726,3.276 1.283,2.679 1.338,1.56 1.387,0.57 1.091,-0.083 0,0"
             style="fill:#231f20;fill-opacity:1;fill-rule:nonzero;stroke:none;stroke-width:1.41705"
             id="path5577" />
        </g>
        <g
           id="g5579"
           transform="translate(203.0913,185.8927)"
           style="stroke-width:1.41705">
          <path
             d="M 0,0 C -0.225,0.263 -0.824,0.686 -1.004,1.245 -1.232,1.952 -0.345,2.694 0.48,2.607 1.269,2.525 1.821,2.163 1.8,1.251 1.782,0.432 1.304,-0.021 0,0"
             style="fill:#231f20;fill-opacity:1;fill-rule:nonzero;stroke:none;stroke-width:1.41705"
             id="path5581" />
        </g>
        <g
           id="g5583"
           transform="translate(179.3519,159.6033)"
           style="stroke-width:1.41705">
          <path
             d="M 0,0 C 0.73,0.419 1.288,0.887 1.924,1.05 2.303,1.146 3.105,0.848 3.182,0.576 3.304,0.147 3.134,-0.584 2.808,-0.88 1.911,-1.693 1.073,-1.44 0,0"
             style="fill:#231f20;fill-opacity:1;fill-rule:nonzero;stroke:none;stroke-width:1.41705"
             id="path5585" />
        </g>
        <g
           id="g5587"
           transform="translate(165.1855,164.0639)"
           style="stroke-width:1.41705">
          <path
             d="M 0,0 C 1.074,0.308 1.993,0.26 2.304,-0.799 2.636,-1.929 1.805,-2.377 0.822,-2.587 -0.36,-2.077 -0.167,-1.11 0,0"
             style="fill:#231f20;fill-opacity:1;fill-rule:nonzero;stroke:none;stroke-width:1.41705"
             id="path5589" />
        </g>
        <g
           id="g5591"
           transform="translate(163.0585,164.3246)"
           style="stroke-width:1.41705">
          <path
             d="M 0,0 C -1.953,-0.497 -2.447,0.034 -1.932,2.077 0.155,2.333 0.348,2.126 0,0"
             style="fill:#231f20;fill-opacity:1;fill-rule:nonzero;stroke:none;stroke-width:1.41705"
             id="path5593" />
        </g>
        <g
           id="g5595"
           transform="translate(342.335,532.3702)"
           style="stroke-width:1.41705">
          <path
             d="m 0,0 c 0.34,-0.138 0.672,-0.372 1.02,-0.4 3.595,-0.284 7.212,-0.385 10.783,-0.848 2.471,-0.32 4.868,-1.182 7.318,-1.709 9.812,-2.108 18.902,-5.918 27.561,-10.998 5.47,-3.209 10.706,-6.732 15.419,-10.889 4.353,-3.839 8.462,-8.063 12.091,-12.588 5.154,-6.425 9.795,-13.263 14.607,-19.959 4.253,-5.917 8.464,-11.864 12.65,-17.828 3.811,-5.429 7.544,-10.914 11.35,-16.347 2.74,-3.911 5.547,-7.775 8.311,-11.668 0.355,-0.5 0.634,-1.053 0.948,-1.581 -0.078,-0.182 -0.157,-0.364 -0.236,-0.546 -0.948,0.11 -1.908,0.162 -2.843,0.342 -4.607,0.89 -9.189,1.929 -13.817,2.687 -3.554,0.582 -7.162,0.828 -10.747,1.217 -3.26,0.354 -6.521,0.705 -9.783,1.045 -0.641,0.067 -1.287,0.117 -1.931,0.118 -4.733,0.01 -9.471,0.148 -14.197,-0.036 -4.43,-0.173 -8.846,-0.705 -13.27,-1.054 -2.254,-0.177 -4.527,-0.181 -6.765,-0.471 -4.912,-0.635 -9.841,-1.224 -14.699,-2.165 -4.966,-0.962 -9.88,-2.228 -14.772,-3.532 -5.026,-1.339 -10.061,-2.7 -14.973,-4.395 -4.364,-1.507 -8.588,-3.431 -12.831,-5.269 -4.304,-1.863 -8.641,-3.682 -12.809,-5.822 -4.515,-2.319 -8.89,-4.922 -13.253,-7.523 -3.645,-2.172 -7.294,-4.367 -10.742,-6.83 -4.88,-3.483 -9.59,-7.206 -14.35,-10.856 -7.625,-5.847 -14.456,-12.579 -20.94,-19.615 -5.368,-5.825 -10.395,-11.991 -15.241,-18.262 -4.013,-5.192 -7.766,-10.618 -11.222,-16.197 -3.339,-5.391 -6.163,-11.103 -9.188,-16.689 -0.886,-1.634 -1.767,-3.281 -2.501,-4.986 -1,-2.322 -1.853,-4.708 -2.777,-7.063 -0.987,-2.519 -1.968,-4.996 -4.724,-6.245 -0.734,-0.332 -1.124,-1.36 -1.767,-1.968 -1.549,-1.467 -3.258,-2.778 -4.715,-4.329 -2.514,-2.677 -5.646,-4.823 -7.271,-8.29 -0.186,-0.395 -0.513,-0.803 -0.883,-1.019 -2.881,-1.68 -2.795,-4.667 -3.109,-7.359 -0.269,-2.303 -0.037,-4.662 -0.061,-6.995 -0.031,-2.93 -0.882,-5.53 -3.135,-7.545 -2.418,-2.162 -4.836,-4.324 -7.231,-6.51 -0.319,-0.29 -0.616,-0.691 -0.738,-1.097 -0.443,-1.48 -1.378,-2.389 -2.843,-2.856 -0.367,-0.117 -0.66,-0.524 -0.943,-0.837 -2.48,-2.749 -4.889,-5.567 -7.45,-8.238 -1.278,-1.333 -3.178,-2.171 -4.171,-3.653 -1.299,-1.937 -3.413,-2.83 -4.783,-4.409 -3.278,-3.779 -7.082,-6.888 -10.97,-9.931 -2.171,-1.698 -3.907,-3.732 -5.511,-5.939 -0.892,-1.227 -2.019,-2.279 -2.999,-3.444 -0.741,-0.881 -1.418,-1.816 -2.121,-2.729 -2.003,-2.6 -3.945,-5.252 -6.043,-7.774 -0.673,-0.807 -1.816,-1.202 -2.639,-1.909 -1.061,-0.913 -2.112,-1.873 -2.972,-2.966 -0.373,-0.476 -0.434,-1.363 -0.333,-2.017 0.418,-2.708 0.734,-5.465 1.526,-8.071 0.482,-1.584 1.649,-3.017 2.715,-4.353 1.552,-1.943 3.286,-3.741 4.95,-5.594 0.602,-0.672 1.114,-1.517 1.86,-1.953 3.312,-1.937 4.046,-5.197 4.757,-8.57 1.241,-5.886 1.454,-11.979 3.56,-17.692 1.462,-3.968 3.212,-7.73 6.739,-10.369 1.138,-0.851 2.151,-1.867 3.234,-2.793 2.966,-2.536 6.09,-4.708 10.111,-5.313 1.861,-0.28 3.381,-1.146 4.436,-3.029 2.525,-4.507 6.141,-8.149 10.114,-11.404 0.973,-0.796 2.072,-2.138 3.559,-1.203 1.534,0.966 0.72,2.514 0.316,3.699 -0.948,2.782 -2.229,5.451 -3.172,8.234 -0.759,2.24 -1.317,4.563 -1.78,6.886 -0.294,1.474 0.783,2.394 1.923,3.086 6.824,4.146 12.542,9.522 17.5,15.735 4.508,5.651 8.992,11.323 13.459,17.007 2.303,2.931 5.039,5.366 8.154,7.394 2.643,1.72 5.178,3.64 7.941,5.137 4.083,2.212 8.34,4.118 13.202,3.329 1.053,-0.171 2.208,-0.401 3.062,-0.979 2.783,-1.885 5.619,-3.589 8.032,-6.132 2.561,-2.701 3.828,-5.934 5.175,-9.077 2.218,-5.175 2.918,-10.705 1.187,-16.28 -0.601,-1.935 -1.241,-3.862 -1.943,-5.763 -0.735,-1.992 -1.629,-3.904 -3.323,-5.312 -0.344,-0.286 -0.774,-0.619 -0.885,-1.009 -0.711,-2.507 -2.998,-3.594 -4.644,-5.247 -0.995,-0.998 -2.061,-1.936 -3.165,-2.811 -1.34,-1.063 -2.78,-2 -4.131,-3.05 -1.164,-0.904 -2.198,-1.986 -3.406,-2.821 -2.188,-1.511 -4.291,-3.454 -6.74,-4.201 -3.452,-1.053 -6.125,-3.237 -9.169,-4.867 -1.588,-0.852 -3.255,-1.558 -4.895,-2.312 -1.375,-0.631 -2.728,-0.651 -4.055,0.172 -3.999,2.482 -7.996,4.966 -12.013,7.419 -0.871,0.531 -1.826,0.922 -2.732,1.396 -1.077,0.565 -2.183,0.36 -2.781,-0.523 -0.472,-0.697 -0.764,-1.914 -0.483,-2.652 1.072,-2.813 2.212,-5.638 3.695,-8.248 1.902,-3.346 1.983,-5.44 -1.279,-7.925 -1.424,-1.085 -2.645,-2.465 -3.843,-3.813 -2.179,-2.45 -1.907,-5.529 -1.371,-8.308 0.958,-4.964 3.497,-9.234 7.133,-12.797 2.275,-2.229 5.085,-3.211 8.2,-3.358 1.993,-0.094 3.349,-0.825 4.19,-2.786 2.738,-6.388 7.609,-10.768 13.634,-13.988 1.759,-0.94 3.624,-1.726 5.255,-2.851 1.925,-1.327 3.957,-1.967 6.34,-1.887 0.798,1.162 -0.215,2.015 -0.719,2.857 -1.655,2.761 -3.601,5.363 -5.091,8.206 -1.535,2.927 -1.089,6.15 -0.461,9.271 0.089,0.439 0.69,1.044 1.095,1.078 0.438,0.036 1.083,-0.402 1.364,-0.817 2.27,-3.357 4.261,-6.927 6.765,-10.093 2.294,-2.9 5.058,-5.444 7.739,-8.015 1.514,-1.451 3.223,-2.719 4.947,-3.923 1.561,-1.091 3.254,-1.997 4.904,-2.958 1.15,-0.67 2.318,-1.309 3.495,-1.93 0.445,-0.235 0.924,-0.434 1.411,-0.556 2.217,-0.552 4.507,-0.888 6.646,-1.653 2.03,-0.727 3.945,-1.709 6.149,-1.946 0.61,-0.065 1.164,-0.739 1.725,-1.158 4.699,-3.512 9.255,-7.237 14.125,-10.492 6.165,-4.12 12.587,-7.855 18.891,-11.766 0.686,-0.426 1.325,-0.924 2.235,-1.563 -0.643,-0.255 -0.92,-0.457 -1.201,-0.462 -3.482,-0.073 -6.966,-0.129 -10.449,-0.164 -3.886,-0.039 -7.771,-0.063 -11.657,-0.072 -5.313,-0.011 -10.626,-10e-4 -15.939,-10e-4 -25.544,0 -51.088,-0.023 -76.631,0.009 -14.586,0.018 -29.171,0.129 -43.756,0.19 -3.678,0.015 -7.357,-0.08 -11.031,0.025 -2.438,0.07 -4.868,0.407 -7.301,0.621 -0.387,0.034 -0.774,0.067 -1.162,0.068 -6.27,0.029 -12.547,-0.131 -18.807,0.133 -5.269,0.222 -10.565,0.647 -15.763,1.502 -6.576,1.082 -12.985,3.017 -19.196,5.448 -3.225,1.263 -6.347,2.853 -9.371,4.552 -3.868,2.176 -7.685,4.472 -11.357,6.962 -8.789,5.958 -16.501,13.114 -22.699,21.759 -3.337,4.655 -6.667,9.389 -9.308,14.448 -2.962,5.673 -6.079,11.349 -7.542,17.714 -0.849,3.692 -2.226,7.27 -2.953,10.98 -0.854,4.352 -1.259,8.791 -1.867,13.192 -0.044,0.315 -0.16,0.621 -0.242,0.931 0,6.484 0,12.968 0,19.451 0.138,0.262 0.355,0.51 0.402,0.787 0.6,3.476 0.978,7.003 1.804,10.423 1.099,4.544 2.444,9.037 3.871,13.492 0.878,2.738 2.043,5.392 3.2,8.031 0.848,1.935 1.818,3.826 2.866,5.662 2.043,3.575 3.95,7.26 6.324,10.608 4.478,6.316 9.281,12.401 13.882,18.631 3.099,4.196 6.118,8.454 9.112,12.727 4.475,6.386 8.87,12.828 13.348,19.212 4.187,5.969 8.45,11.884 12.655,17.84 3.534,5.004 7.01,10.048 10.555,15.044 2.989,4.212 6.079,8.352 9.053,12.574 4.27,6.062 8.452,12.186 12.715,18.254 4.408,6.273 8.887,12.496 13.299,18.767 4.264,6.06 8.466,12.164 12.726,18.228 3.074,4.374 6.212,8.704 9.297,13.071 4.39,6.213 8.744,12.451 13.137,18.662 5.808,8.21 11.637,16.404 17.459,24.603 2.166,3.05 4.34,6.094 6.505,9.144 1.944,2.738 3.904,5.466 5.816,8.227 3.926,5.671 7.784,11.39 11.746,17.036 3.516,5.013 7.161,9.935 10.7,14.932 3.723,5.257 7.374,10.567 11.083,15.835 4.118,5.847 8.241,11.692 12.411,17.501 3.457,4.817 7.1,9.505 10.459,14.388 5.48,7.967 12.238,14.728 19.665,20.795 7.153,5.842 14.963,10.751 23.633,14.075 5.081,1.949 10.285,3.587 15.465,5.268 1.272,0.412 2.714,0.287 3.997,0.676 4.563,1.381 9.25,1.702 13.965,1.899 0.544,0.023 1.079,0.263 1.618,0.403 z"
             style="fill:#851f23;fill-opacity:1;fill-rule:nonzero;stroke:none;stroke-width:1.41705"
             id="path5597" />
        </g>
        <g
           id="g5599"
           transform="translate(654.7137,126.239)"
           style="stroke-width:1.41705">
          <path
             d="m 0,0 c -0.139,-0.739 -0.419,-1.482 -0.397,-2.215 0.195,-6.352 -0.095,-12.687 -1.25,-18.925 -0.78,-4.215 -2.067,-8.337 -3.142,-12.496 -1.501,-5.813 -3.921,-11.268 -6.543,-16.639 -2.721,-5.574 -6.058,-10.744 -9.772,-15.725 -4.446,-5.964 -9.291,-11.542 -14.923,-16.368 -3.459,-2.965 -7.181,-5.661 -10.985,-8.175 -3.908,-2.582 -7.98,-4.948 -12.132,-7.12 -2.924,-1.529 -5.754,-3.52 -9.298,-3.47 -2.013,-1.827 -4.66,-2.141 -7.108,-2.737 -4.914,-1.196 -9.867,-2.393 -14.875,-2.994 -5.376,-0.644 -10.833,-0.637 -16.257,-0.85 -2.305,-0.09 -4.618,0.028 -6.926,-0.025 -5.043,-0.116 -10.085,-0.268 -15.126,-0.429 -2.703,-0.087 -5.404,-0.229 -8.106,-0.332 -0.451,-0.017 -0.969,-0.093 -1.341,0.091 -0.641,0.318 -1.192,0.818 -1.78,1.242 0.478,0.444 0.893,0.997 1.443,1.315 7.197,4.159 14.38,8.33 21.048,13.332 3.499,2.626 7.246,4.935 10.641,7.684 3.811,3.087 7.491,6.369 10.979,9.817 6.074,6.002 12.114,12.055 17.863,18.364 3.594,3.944 6.742,8.315 9.883,12.645 3.44,4.742 6.858,9.525 9.897,14.527 4.535,7.465 8.897,15.051 12.393,23.081 2.208,5.071 4.182,10.246 6.457,15.287 2.291,5.076 3.812,10.39 5.252,15.731 1.702,6.311 3.385,12.635 4.793,19.016 0.856,3.88 1.154,7.882 1.744,11.823 0.485,3.24 1.012,6.473 1.582,9.698 0.061,0.345 0.517,0.85 0.817,0.871 0.504,0.034 1.259,-0.096 1.512,-0.445 2.23,-3.077 4.532,-6.121 6.501,-9.364 2.47,-4.065 4.744,-8.259 6.927,-12.487 3.169,-6.136 5.169,-12.722 6.964,-19.36 0.702,-2.596 1.276,-5.243 1.658,-7.903 0.522,-3.633 0.793,-7.301 1.199,-10.95 C -0.347,4.965 -0.14,4.431 0,3.89 Z"
             style="fill:#851f23;fill-opacity:1;fill-rule:nonzero;stroke:none;stroke-width:1.41705"
             id="path5601" />
        </g>
        <g
           id="g5603"
           transform="translate(171.1561,171.241)"
           style="stroke-width:1.41705">
          <path
             d="m 0,0 c -1.151,0.85 -1.845,1.754 -2.436,1.691 -0.599,-0.065 -1.441,-1.043 -1.521,-1.7 -0.059,-0.48 0.922,-1.498 1.484,-1.532 C -1.844,-1.578 -1.165,-0.775 0,0 m 31.359,13.131 c 1.495,1.345 2.529,2.275 3.563,3.206 -1.001,0.721 -1.911,1.706 -3.028,2.088 -1.117,0.382 -2.974,-1.304 -2.686,-2.41 0.237,-0.911 1.18,-1.638 2.151,-2.884 M 21.403,1.059 C 21.385,3.132 20.401,4.282 18.651,4.273 16.822,4.264 14.923,2.692 14.989,1.242 c 0.073,-1.599 1.446,-2.788 3.155,-2.73 1.889,0.063 3.27,1.144 3.259,2.547 m 6.85,7.652 c -0.826,0.958 -1.545,2.067 -2.523,2.857 -1.321,1.067 -3.005,0.481 -4.268,-1.257 -1.037,-1.427 -0.847,-3.122 0.462,-4.114 1.164,-0.883 3.13,-0.507 4.545,0.855 0.631,0.607 1.281,1.193 1.784,1.659 M 9.115,-4.209 c 1.191,1.028 2.503,1.725 3.064,2.811 0.338,0.652 -0.248,2.119 -0.862,2.848 C 10.298,2.662 8.901,2.356 7.627,1.586 6.965,1.186 6.315,0.674 5.592,0.502 4.995,0.359 4.298,0.661 3.642,0.731 2.786,0.822 1.926,0.878 1.067,0.95 1.03,0.122 0.649,-1.108 1.036,-1.438 1.595,-1.915 3.1,-2.156 3.516,-1.766 c 1.337,1.252 1.946,0.407 2.826,-0.453 0.687,-0.671 1.569,-1.142 2.773,-1.99 m 232.642,99.414 c -0.155,-0.156 -0.31,-0.311 -0.465,-0.467 0.313,-0.436 0.61,-0.884 0.941,-1.305 3.6,-4.574 7.565,-8.911 10.718,-13.775 4.077,-6.291 7.527,-12.998 8.94,-20.508 0.194,-1.03 -0.079,-2.147 0.105,-3.18 0.894,-5.022 2.13,-9.997 2.758,-15.048 1.019,-8.201 0.742,-16.412 -0.793,-24.563 -0.513,-2.728 -1.083,-5.48 -1.179,-8.237 -0.052,-1.505 0.279,-2.946 -0.531,-4.383 -0.891,-1.583 -1.797,-1.901 -3.277,-0.893 -0.694,0.472 -1.341,1.029 -2.075,1.426 -8.822,4.774 -17.656,9.523 -26.485,14.285 -1.135,0.612 -2.204,1.38 -3.393,1.848 -1.253,0.494 -2.098,-0.005 -1.811,-1.484 0.32,-1.648 0.755,-3.277 1.183,-4.902 1.284,-4.883 3.024,-9.693 3.8,-14.654 1.92,-12.266 1.243,-24.501 -1.19,-36.689 -1.189,-5.958 -2.915,-11.7 -5.654,-17.076 -2.403,-4.716 -5.19,-9.241 -7.899,-13.796 -1.288,-2.166 -2.695,-4.276 -4.218,-6.282 -1.576,-2.078 -3.127,-1.886 -3.926,0.485 -2.684,7.967 -8.201,13.799 -14.289,19.207 -1.299,1.154 -2.645,2.333 -4.158,3.153 -5.049,2.735 -10.173,5.332 -15.303,7.916 -0.439,0.221 -1.128,-0.053 -1.701,-0.097 0.207,-0.489 0.29,-1.106 0.641,-1.445 1.893,-1.829 3.887,-3.554 5.785,-5.379 6.809,-6.546 12.45,-13.909 16.958,-22.286 3.566,-6.626 5.725,-13.382 5.507,-20.89 -0.019,-0.647 -0.025,-1.303 0.056,-1.943 0.247,-1.948 1.327,-2.501 2.9,-1.351 1.134,0.829 2.205,1.821 3.077,2.92 2.285,2.882 4.397,5.902 6.667,8.797 8.082,10.309 14.494,21.53 18.656,33.985 0.696,2.083 1.155,4.251 1.94,6.296 3.585,9.333 5.634,18.983 5.689,28.974 0.029,5.419 -0.507,10.84 -0.726,16.263 -0.101,2.499 0.861,3.132 3.053,1.833 2.435,-1.443 4.674,-3.211 7.046,-4.764 6.62,-4.334 12.278,-9.635 16.69,-16.24 0.353,-0.529 1.144,-1.158 1.638,-1.088 0.492,0.071 1.095,0.902 1.257,1.506 1.539,5.747 3.399,11.449 4.373,17.297 1.243,7.454 1.834,15.023 2.556,22.557 1.024,10.688 -0.633,21.162 -2.802,31.579 -0.105,0.503 -0.312,0.988 -0.5,1.47 -2.638,6.745 -5.424,13.394 -9.054,19.713 -4.285,7.458 -9.913,13.528 -16.951,18.362 -1.475,1.013 -3.034,1.905 -4.554,2.853 m -0.398,10.37 c 0.187,-0.151 0.373,-0.303 0.559,-0.454 0.977,1.134 1.848,2.387 2.951,3.382 3.435,3.097 5.187,7.164 6.082,11.468 1.075,5.171 0.666,10.452 -0.748,15.557 -0.86,3.107 -1.962,6.166 -3.202,9.144 -1.487,3.569 -2.962,7.195 -4.948,10.491 -2.121,3.521 -4.652,6.841 -7.334,9.965 -2.68,3.12 -5.708,5.954 -8.7,8.789 -2.01,1.904 -4.426,3.405 -6.293,5.424 -2.142,2.316 -3.848,5.031 -5.798,7.529 -4.284,5.486 -9.511,8.666 -16.893,8.479 -9.29,-0.236 -18.418,-1.462 -27.533,-3.002 -4.628,-0.781 -9.209,-1.926 -12.737,-5.244 -4.751,-4.467 -9.421,-9.034 -13.895,-13.775 -2.403,-2.547 -4.848,-3.038 -8.169,-2.25 -2.771,0.657 -5.873,1.093 -8.601,0.528 -7.361,-1.526 -13.23,-5.916 -18.528,-11.074 -0.497,-0.483 -0.719,-1.247 -1.069,-1.881 0.767,-0.409 1.496,-1.044 2.309,-1.182 2.288,-0.388 4.616,-0.525 6.914,-0.862 0.706,-0.103 1.895,-0.476 1.933,-0.825 0.077,-0.716 -0.406,-1.539 -0.798,-2.24 -0.2,-0.359 -0.682,-0.58 -1.068,-0.813 -3.485,-2.104 -6.912,-4.317 -10.484,-6.266 -5.108,-2.787 -10.279,-5.468 -15.506,-8.026 -4.976,-2.435 -10.33,-3.465 -15.836,-3.02 -5.124,0.415 -10.07,0.35 -14.667,-2.33 -0.661,-0.386 -1.464,-0.521 -2.168,-0.844 -0.515,-0.236 -1.146,-0.477 -1.436,-0.91 -2.831,-4.237 -5.281,-8.612 -5.091,-13.977 0.18,-5.108 0.394,-10.221 0.323,-15.329 -0.046,-3.269 0.285,-6.975 -1.105,-9.69 -1.987,-3.883 -5.41,-7.026 -8.184,-10.514 -0.825,-1.037 -1.581,-2.139 -2.273,-3.271 -0.569,-0.93 -0.867,-2.043 -1.512,-2.907 -1.853,-2.48 -3.785,-4.905 -5.753,-7.296 -2.01,-2.444 -4.18,-4.76 -6.102,-7.268 -0.558,-0.727 -0.507,-1.922 -0.735,-2.903 1.011,-0.219 2.017,-0.562 3.035,-0.608 0.588,-0.027 1.263,0.328 1.786,0.679 2.657,1.781 5.31,3.571 7.901,5.446 3.165,2.291 6.205,4.758 9.417,6.976 1.863,1.286 3.616,3.32 6.202,2.664 2.565,-0.651 4.401,0.442 6.497,1.603 3.885,2.152 7.549,4.882 12.512,4.402 2.817,-0.273 5.738,0.433 7.88,2.622 2.611,2.667 5.161,5.399 7.626,8.201 2.12,2.412 4.635,3.815 7.884,3.876 0.959,0.017 1.933,0.15 2.867,0.371 1.595,0.378 3.313,1.247 3.026,2.951 -0.224,1.328 -1.55,2.645 -2.697,3.588 -0.887,0.73 -2.263,0.855 -3.409,1.282 -4.265,1.589 -7.983,4.05 -11.545,6.869 -2.578,2.041 -5.724,2.546 -8.972,1.853 -2.696,-0.575 -4.984,0.27 -7.056,1.894 -1.198,0.939 -1.483,2.177 -1.076,3.657 0.936,3.405 3.334,5.76 6.351,6.904 3.453,1.311 7.217,2.124 10.905,2.421 5.922,0.478 11.913,0.097 17.834,0.578 3.753,0.304 7.767,0.835 11.074,2.461 6.346,3.122 12.388,6.918 18.338,10.772 4.64,3.006 9.161,6.262 12.755,10.596 1.42,1.713 1.508,3.168 0.028,4.586 -2.545,2.44 -2.62,3.783 -0.346,6.398 2.756,3.167 5.589,6.271 8.255,9.512 4.893,5.948 10.598,10.478 18.419,12.02 10.064,1.985 20.163,3.225 30.447,3.135 6.098,-0.053 10.638,-2.745 13.93,-7.499 3.832,-5.535 8.273,-10.368 13.651,-14.429 3.741,-2.824 6.947,-6.274 9.117,-10.473 2.101,-4.066 3.943,-8.269 5.844,-12.437 2.312,-5.069 3.328,-10.418 3.353,-15.979 0.005,-1.157 -0.013,-2.411 0.405,-3.449 0.737,-1.832 0.286,-3.376 -0.529,-4.972 -1.883,-3.685 -3.744,-7.382 -5.614,-11.074 m -42.128,128.108 h 7.391 13.616 3.89 c 0.291,-0.12 0.576,-0.327 0.873,-0.346 4.78,-0.302 9.567,-0.881 14.343,-0.803 10.396,0.168 20.398,-2.471 30.552,-3.969 5.803,-0.857 11.513,-2.423 17.216,-3.863 4.568,-1.154 9.15,-2.364 13.567,-3.983 4.717,-1.728 9.278,-3.897 13.851,-5.998 4.634,-2.128 9.275,-4.265 13.771,-6.664 3.813,-2.035 7.491,-4.347 11.106,-6.723 3.64,-2.393 7.167,-4.964 10.672,-7.555 3.883,-2.87 7.838,-5.595 11.186,-9.207 3.846,-4.15 8.402,-7.632 12.365,-11.684 3.735,-3.82 7.231,-7.896 10.59,-12.055 3.191,-3.95 6.202,-8.061 9.043,-12.269 2.595,-3.844 4.931,-7.871 7.245,-11.895 2.673,-4.651 5.571,-9.225 7.712,-14.12 5.101,-11.663 9.9,-23.477 12.503,-36.009 1.618,-7.788 3.001,-15.627 4.368,-23.465 0.286,-1.637 0.041,-3.367 0.041,-5.054 -0.235,-0.043 -0.47,-0.086 -0.706,-0.128 -0.253,0.507 -0.602,0.99 -0.742,1.527 -0.408,1.559 -0.607,3.181 -1.11,4.706 -2.244,6.812 -4.459,13.637 -6.903,20.378 -1.205,3.324 -2.848,6.493 -4.354,9.703 -2.544,5.425 -4.946,10.878 -8.447,15.857 -2.575,3.662 -4.21,7.946 -7.672,11.068 -1.295,1.168 -1.939,3.026 -3.068,4.416 -2.204,2.712 -4.503,5.348 -6.835,7.951 -1.445,1.614 -3.294,2.928 -4.479,4.699 -1.724,2.579 -3.667,4.798 -6.341,6.383 -0.658,0.391 -1.211,0.967 -1.791,1.482 -2.126,1.893 -4.174,3.881 -6.381,5.673 -2.856,2.321 -5.795,4.546 -8.774,6.707 -3.236,2.346 -6.418,4.822 -9.881,6.785 -4.635,2.628 -9.452,4.965 -14.312,7.159 -5.94,2.681 -11.982,5.141 -18.026,7.581 -2.692,1.086 -5.471,1.98 -8.258,2.797 -4.069,1.192 -8.221,2.11 -12.26,3.391 -2.462,0.78 -4.716,0.125 -7.037,-0.318 -0.351,-0.067 -0.632,-0.497 -1.182,-0.955 2.444,-1.324 4.573,-2.661 6.847,-3.67 4.842,-2.15 9.801,-4.037 14.626,-6.223 2.154,-0.975 4.067,-2.47 6.147,-3.624 2.798,-1.553 5.841,-2.733 8.445,-4.551 6.864,-4.794 13.553,-9.837 20.29,-14.811 0.613,-0.453 1.261,-1.034 1.559,-1.705 0.87,-1.96 2.584,-2.935 4.155,-4.187 1.617,-1.288 3.112,-2.886 4.194,-4.637 0.905,-1.463 -0.262,-2.666 -1.986,-2.19 -1.8,0.496 -3.709,0.933 -5.273,1.884 -3.346,2.033 -7.181,2.022 -10.766,3.013 -1.416,0.391 -2.89,0.713 -4.35,0.77 -2.977,0.118 -5.985,0.258 -8.938,-0.034 -2.51,-0.249 -5.235,0.567 -7.509,-1.052 -0.781,-0.556 -1.769,-1.486 -1.787,-2.266 -0.019,-0.788 0.882,-1.868 1.668,-2.356 2.679,-1.664 5.536,-3.043 8.23,-4.685 2.649,-1.613 5.149,-3.471 7.776,-5.122 3.847,-2.416 7.617,-4.899 10.407,-8.595 0.298,-0.394 0.875,-0.564 1.241,-0.92 3.36,-3.267 6.764,-6.492 10.023,-9.856 1.871,-1.931 3.489,-4.106 5.241,-6.154 1.251,-1.462 2.637,-2.819 3.782,-4.358 1.61,-2.165 3.094,-4.428 4.557,-6.698 2.366,-3.672 4.841,-7.289 6.949,-11.106 1.743,-3.155 3.021,-6.566 4.509,-9.863 3.603,-7.983 6.576,-16.197 8.341,-24.779 1.315,-6.396 2.749,-12.835 3.226,-19.32 0.816,-11.092 1.231,-22.24 -0.814,-33.299 -0.764,-4.129 -1.048,-8.366 -2.076,-12.421 -1.604,-6.319 -3.256,-12.681 -5.626,-18.737 -2.536,-6.482 -5.855,-12.666 -8.984,-18.903 -1.095,-2.182 -2.592,-4.172 -3.996,-6.187 -1.529,-2.195 -3.411,-4.18 -4.698,-6.502 -2.29,-4.133 -5.248,-7.642 -8.753,-10.749 -0.377,-0.333 -0.629,-0.807 -0.941,-1.213 -1.526,-1.986 -2.777,-4.289 -4.633,-5.893 -4.461,-3.856 -7.852,-9.037 -13.648,-11.282 -0.339,-0.132 -0.589,-0.497 -0.881,-0.753 -1.545,-1.362 -2.947,-2.949 -4.666,-4.035 -3.198,-2.02 -6.413,-4.114 -9.705,-5.869 -7.392,-3.942 -15.088,-7.372 -22.853,-10.537 -8.852,-3.608 -18.24,-5.293 -27.703,-6.473 -0.364,-0.046 -0.765,0.21 -1.149,0.325 0.21,0.552 0.267,1.41 0.656,1.604 2.229,1.112 4.49,2.195 6.827,3.05 6.62,2.422 13.191,4.917 19.231,8.641 3.125,1.927 6.375,3.65 9.556,5.486 0.436,0.252 0.952,0.544 1.177,0.956 1.648,3.024 4.487,4.763 7.093,6.774 1.838,1.418 3.699,2.839 5.349,4.463 2.431,2.394 4.741,4.919 7,7.478 2.779,3.15 5.647,6.251 8.115,9.637 2.374,3.256 4.251,6.871 6.409,10.288 3.32,5.254 6.766,10.434 8.367,16.559 0.193,0.741 0.664,1.405 0.952,2.125 1.535,3.837 3.085,7.668 4.548,11.532 0.312,0.826 0.284,1.781 0.413,2.676 0.157,1.088 0.208,2.204 0.489,3.259 2.15,8.073 2.611,16.366 3.154,24.635 0.765,11.661 -0.905,23.171 -2.982,34.574 -0.979,5.369 -3.08,10.545 -4.813,15.762 -1.182,3.555 -2.343,7.159 -3.985,10.511 -2.382,4.861 -5.134,9.545 -7.84,14.239 -1.225,2.124 -2.581,4.204 -4.132,6.096 -1.457,1.778 -3.223,3.309 -4.906,4.891 -0.607,0.57 -1.369,0.973 -2.06,1.452 -0.212,-0.136 -0.424,-0.273 -0.636,-0.409 0.339,-1.253 0.592,-2.536 1.041,-3.748 0.424,-1.147 1.142,-2.185 1.575,-3.33 1.651,-4.366 2.969,-8.88 4.916,-13.107 2.753,-5.974 4.613,-12.197 6.124,-18.55 3.343,-14.064 5.134,-28.284 4.048,-42.77 -0.218,-2.903 -0.29,-5.843 -0.821,-8.692 -1.042,-5.585 -2.312,-11.13 -3.586,-16.668 -0.592,-2.57 -1.423,-5.084 -2.131,-7.627 -0.225,-0.808 -0.268,-1.693 -0.62,-2.435 -2.409,-5.065 -4.7,-10.2 -7.387,-15.117 -2.066,-3.783 -4.406,-7.478 -7.082,-10.848 -2.663,-3.353 -5.711,-6.463 -8.926,-9.298 -4.603,-4.057 -9.445,-7.855 -14.32,-11.586 -2.293,-1.754 -4.817,-3.268 -7.406,-4.547 -1.211,-0.599 -3.329,-1.004 -4.116,-0.365 -0.799,0.65 -0.829,2.763 -0.568,4.115 1.277,6.622 0.883,13.118 -1.135,19.508 -0.374,1.183 -1.227,2.275 -2.058,3.237 -0.945,1.092 -2.234,1.182 -3.239,0.091 -2.506,-2.723 -4.916,-5.535 -7.362,-8.313 -0.041,-0.046 -0.043,-0.128 -0.085,-0.173 -1.261,-1.357 -2.521,-2.715 -3.79,-4.064 -0.704,-0.748 -1.416,-1.489 -2.141,-2.217 -1.174,-1.18 -2.332,-2.38 -3.557,-3.506 -0.757,-0.696 -1.643,-1.249 -2.438,-1.905 -2.982,-2.459 -5.826,-5.11 -8.963,-7.349 -2.612,-1.863 -5.548,-3.28 -8.369,-4.842 -3.789,-2.097 -7.413,-4.701 -11.451,-6.091 -7.75,-2.67 -15.647,-5.077 -23.657,-6.779 -8.379,-1.781 -16.99,-1.678 -25.548,-0.944 -0.837,0.071 -1.686,0.106 -2.522,0.054 -2.292,-0.144 -3.062,-1.435 -1.897,-3.369 0.796,-1.321 1.74,-2.595 2.818,-3.694 2.854,-2.909 5.721,-5.816 8.754,-8.534 7.211,-6.461 15.1,-12.058 23.617,-16.606 7.799,-4.165 15.939,-7.694 23.951,-11.458 1.276,-0.6 2.648,-1.014 4.003,-1.422 4.578,-1.377 9.169,-2.714 13.755,-4.063 0.931,-0.274 1.911,-0.438 2.78,-0.841 0.443,-0.205 0.946,-0.829 0.947,-1.265 10e-4,-0.341 -0.711,-0.948 -1.139,-0.979 -1.735,-0.124 -3.49,-0.186 -5.223,-0.061 -3.418,0.244 -6.839,0.533 -10.236,0.975 -6.272,0.817 -12.594,1.445 -18.771,2.741 -5.35,1.123 -10.62,2.816 -15.762,4.699 -7.337,2.687 -14.659,5.493 -21.735,8.79 -5.43,2.53 -10.502,5.842 -15.671,8.912 -3.838,2.279 -7.678,4.579 -11.332,7.134 -5.084,3.553 -10.1,7.223 -14.954,11.083 -5.214,4.144 -10.327,8.432 -15.258,12.907 -4.111,3.731 -7.86,7.857 -11.837,11.74 -2.712,2.648 -6.657,2.605 -8.891,-0.26 -0.976,-1.252 -1.7,-3.003 -1.803,-4.576 -0.246,-3.756 0.61,-7.292 3.388,-10.143 3.053,-3.132 5.189,-7.066 8.815,-9.735 1.463,-1.077 2.304,-2.96 3.669,-4.214 2.492,-2.29 5.201,-4.343 7.729,-6.596 0.528,-0.471 0.665,-1.381 0.982,-2.089 -0.761,-0.239 -1.509,-0.554 -2.288,-0.685 -0.411,-0.069 -0.873,0.193 -1.316,0.29 -3.256,0.709 -6.512,1.42 -9.772,2.113 -0.306,0.065 -0.687,0.104 -0.955,-0.016 -4.064,-1.832 -7.857,-0.295 -11.666,0.928 -2.279,0.731 -4.581,1.428 -6.786,2.349 -3.077,1.286 -6.248,2.488 -9.05,4.25 -2.311,1.454 -3.988,3.884 -6.223,5.499 -4.41,3.189 -7.497,7.45 -10.459,11.872 -1.674,2.499 -3.438,4.937 -5.152,7.41 -0.247,0.356 -0.441,0.748 -0.709,1.209 0.532,0.388 0.978,0.714 1.407,1.027 -0.692,1.967 0.107,3.966 2.083,5.701 0.603,0.53 1.179,1.216 1.477,1.948 1.121,2.765 1.894,5.695 3.244,8.335 0.999,1.955 1.675,3.793 1.638,6.006 -0.011,0.645 1.052,1.884 1.58,1.861 2.194,-0.096 2.841,1.179 3.475,2.894 0.696,1.883 1.955,3.18 4.18,3.552 1.238,0.207 2.348,1.178 3.516,1.804 -0.126,0.338 -0.251,0.676 -0.376,1.014 -0.953,-0.175 -2.379,-0.019 -2.773,-0.583 -1.446,-2.075 -3.252,-2.463 -5.513,-1.971 -0.352,0.077 -0.758,-0.147 -1.141,-0.161 -3.22,-0.118 -5.543,-2.337 -8.317,-3.484 -7.017,-2.902 -14.032,-5.828 -21.321,-8.035 -2.373,-0.718 -5.048,-1.386 -6.814,-2.949 -3.045,-2.696 -6.81,-4.831 -8.469,-8.913 -0.444,-1.093 -1.204,-2.058 -1.956,-3.312 -2.237,3.035 -3.422,6.273 -3.572,9.899 -0.109,2.652 0.589,4.951 2.681,6.786 1.651,1.449 3.282,2.97 4.637,4.685 0.62,0.784 0.973,2.231 0.704,3.163 -0.471,1.636 -1.564,3.084 -2.308,4.653 -0.937,1.977 -1.865,3.967 -2.625,6.015 -0.25,0.672 0.036,1.543 0.076,2.322 0.824,-0.172 1.773,-0.138 2.45,-0.55 4.31,-2.62 8.561,-5.335 12.827,-8.026 1.652,-1.042 3.474,-1.359 5.186,-0.484 5.467,2.794 11.032,5.456 16.236,8.688 5.035,3.126 9.743,6.8 14.463,10.405 6.508,4.97 10.965,11.311 12.874,19.431 3.379,14.374 -3.79,28.44 -17.153,34.022 -2.454,1.026 -4.782,1.138 -7.35,0.316 -3.132,-1.004 -6.375,-1.682 -9.592,-2.399 -1.919,-0.427 -3.809,0.191 -4.866,1.696 -0.992,1.413 0.097,2.906 0.962,4.259 0.309,0.483 0.308,1.434 0.035,1.955 -0.395,0.754 -1.166,1.311 -1.777,1.953 C 55.003,21.156 54.574,20.859 54.105,20.653 49.524,18.645 48.038,12.911 43.011,11.434 42.869,11.393 42.803,11.119 42.686,10.965 40.13,7.59 36.798,5.194 33.07,3.277 32.277,2.869 31.379,2.424 30.877,1.74 29.557,-0.059 27.778,-0.605 25.692,-0.883 24.718,-1.012 23.676,-1.62 22.934,-2.303 21.162,-3.934 19.477,-5.486 16.878,-5.794 15.867,-5.914 14.993,-6.986 14.003,-7.526 12.918,-8.117 11.79,-8.639 10.647,-9.111 9.452,-9.603 8.105,-9.816 7.029,-10.482 c -1.451,-0.898 -2.622,-0.895 -3.632,0.447 -1.033,1.371 -2.337,1.913 -4.071,1.553 -1.49,-0.31 -2.949,-0.396 -3.833,1.339 -0.193,0.38 -1.087,0.772 -1.454,0.63 -1.416,-0.549 -2.199,-0.175 -2.689,1.23 -0.125,0.359 -0.593,0.71 -0.981,0.848 -1.951,0.694 -2.505,2.323 -2.278,4.032 0.178,1.34 1.043,2.588 1.602,3.878 0.154,0.129 0.308,0.259 0.461,0.388 0.332,0.39 0.699,0.756 0.989,1.175 1.356,1.963 2.69,3.942 4.035,5.914 1.176,1.725 2.476,3.379 3.5,5.191 1.046,1.853 1.379,3.911 0.587,5.993 -1.448,3.808 -3.68,6.586 -8.1,2.499 -1.882,-1.74 -4.154,-2.246 -6.499,-1.585 -3.531,0.993 -6.969,2.312 -10.462,3.443 -1.999,0.648 -4.031,1.197 -6.047,1.79 v 0.389 c 0.596,0.57 1.392,1.035 1.759,1.727 3.548,6.683 9.316,11.485 14.418,16.801 4.059,4.231 8.741,7.863 13.134,11.776 0.529,0.471 1.032,0.991 1.455,1.557 1.006,1.344 1.797,2.885 2.957,4.07 7.83,8.009 15.771,15.909 23.56,23.957 0.882,0.911 1.342,2.497 1.464,3.819 0.225,2.44 0.088,4.917 0.041,7.378 -0.059,3.033 0.864,5.755 2.604,8.184 3.908,5.455 8.442,10.335 13.854,14.325 2.805,2.069 4.826,4.599 5.907,7.929 0.434,1.336 0.832,2.937 1.799,3.793 1.961,1.737 4.218,3.19 6.505,4.492 2.004,1.141 4.39,1.67 5.347,4.156 0.12,0.311 0.571,0.502 0.88,0.733 3.449,2.568 6.918,5.109 10.345,7.705 3.553,2.691 7.06,5.444 10.604,8.147 0.458,0.349 1.054,0.513 1.527,0.845 1.313,0.921 2.623,1.85 3.885,2.84 3.64,2.854 7.257,5.737 10.88,8.613 2.567,2.038 5.146,4.063 7.677,6.145 0.423,0.348 0.73,0.922 0.922,1.452 1.426,3.931 2.615,7.96 4.256,11.797 2.098,4.909 4.496,9.695 6.875,14.479 0.941,1.892 2.028,3.755 3.323,5.417 1.605,2.061 3.436,3.96 5.283,5.816 1.455,1.462 2.998,2.864 4.65,4.094 2.632,1.961 5.362,3.795 8.116,5.582 0.413,0.268 1.411,0.211 1.725,-0.105 0.315,-0.318 0.203,-1.163 0.109,-1.749 -0.067,-0.42 -0.43,-0.786 -0.632,-1.19 -1.3,-2.597 -2.746,-5.136 -3.794,-7.831 -0.332,-0.854 0.155,-2.32 0.771,-3.117 0.281,-0.364 1.974,-0.069 2.701,0.416 4.072,2.719 7.958,5.722 12.078,8.363 3.196,2.049 6.62,3.751 9.982,5.533 5.098,2.701 10.341,5.031 16.195,5.502 5.22,0.421 10.446,0.77 15.668,1.175 0.753,0.058 1.496,0.253 2.244,0.385"
             style="fill:#c89c3c;fill-opacity:1;fill-rule:nonzero;stroke:none;stroke-width:1.41705"
             id="path5605" />
        </g>
        <g
           id="g5607"
           transform="translate(391.3941,404.9237)"
           style="stroke-width:1.41705">
          <path
             d="M 0,0 H -13.616 Z"
             style="fill:#c89c3c;fill-opacity:1;fill-rule:nonzero;stroke:none;stroke-width:1.41705"
             id="path5609" />
        </g>
      </g>
    </g>
    <text
       xml:space="preserve"
       style="font-style:normal;font-variant:normal;font-weight:bold;font-stretch:normal;font-size:32.6758px;font-family:Consolas;-inkscape-font-specification:'Consolas, Bold';font-variant-ligatures:normal;font-variant-caps:normal;font-variant-numeric:normal;font-variant-east-asian:normal;fill:#851f23;fill-opacity:1;stroke:#ffffff;stroke-width:0.1"
       x="33.630932"
       y="195.44865"
       id="text6397"
       transform="scale(1.0012052,0.99879626)"><tspan
         id="tspan6395"
         style="font-style:normal;font-variant:normal;font-weight:bold;font-stretch:normal;font-size:32.6758px;font-family:Consolas;-inkscape-font-specification:'Consolas, Bold';font-variant-ligatures:normal;font-variant-caps:normal;font-variant-numeric:normal;font-variant-east-asian:normal;fill:#851f23;fill-opacity:1;stroke-width:0.1"
         x="33.630932"
         y="195.44865">BARBEDOS</tspan></text>
    <text
       xml:space="preserve"
       style="font-style:normal;font-variant:normal;font-weight:bold;font-stretch:normal;font-size:35.8294px;font-family:Consolas;-inkscape-font-specification:'Consolas, Bold';font-variant-ligatures:normal;font-variant-caps:normal;font-variant-numeric:normal;font-variant-east-asian:normal;fill:#c89c3c;fill-opacity:1;stroke:#ffffff;stroke-width:0.1"
       x="56.772247"
       y="221.45027"
       id="text6451"
       transform="scale(1.0010088,0.99899222)"><tspan
         id="tspan6453"
         x="56.772247"
         y="221.45027"
         style="stroke-width:0.1">GROUP</tspan></text>
  </g>
</svg>
